<svg width="39" height="33" viewBox="0 0 39 33" fill="none" xmlns="http://www.w3.org/2000/svg">
<path d="M34.4805 10.9867C35.3665 13.407 35.8988 15.9533 36.9694 18.2946C38.3655 21.3502 38.6296 24.7175 36.8464 27.7826C35.3504 30.3545 32.5671 32.1215 29.5127 32.0991C24.8373 32.0649 21.0208 28.104 20.9411 23.1064C19.793 22.4242 18.4129 22.4285 17.2597 23.1086C17.177 28.1328 13.3212 32.1119 8.6115 32.1001C5.58227 32.0926 2.83529 30.3215 1.35545 27.7773C-0.427812 24.7121 -0.167731 21.3459 1.23247 18.2946C2.31412 15.9352 2.83731 13.3633 3.74558 10.9301C4.44416 9.05858 5.74053 7.64504 7.55303 7.0066L9.03086 2.4489C9.54396 0.867747 11.0319 -0.103794 12.5742 0.136422C14.0692 0.369165 15.3504 1.71117 15.3615 3.38841L15.3958 8.55253C15.9855 9.05645 16.4855 9.55503 16.9996 10.1711C18.3 9.24115 19.9008 9.24008 21.2012 10.1711C21.7143 9.55396 22.2194 9.05858 22.804 8.55253L22.8484 3.31155C22.8625 1.66313 24.169 0.362759 25.6296 0.137489C27.0903 -0.08778 28.6417 0.836785 29.1478 2.39445L30.6488 7.00981C32.4936 7.64504 33.7859 9.09061 34.4805 10.9889V10.9867ZM14.7496 8.01871L14.7798 3.63183C14.7708 2.11474 13.7254 0.890167 12.3 0.741767C11.0984 0.68625 10.0077 1.42505 9.61453 2.64001L8.27078 6.78667C10.5762 6.20375 12.7768 6.65749 14.7496 8.01871ZM29.927 6.77813L28.5752 2.57809C28.1075 1.32362 26.919 0.566676 25.6861 0.774863C24.4815 0.97878 23.5419 2.04427 23.429 3.39055L23.4482 8.03473C25.421 6.6372 27.6317 6.2251 29.927 6.77813ZM16.6034 19.4434L16.6559 10.738C14.4784 8.09238 11.8716 6.5945 8.49658 7.39095C6.58529 7.84149 4.97239 9.16962 4.32118 11.18C3.7486 12.9479 3.09739 14.653 2.63066 16.5042C4.95727 14.2878 7.74557 13.4305 10.7274 14.1768C13.2577 14.8099 15.4331 16.7295 16.6044 19.4434H16.6034ZM35.5984 16.3921L33.9119 11.2323C33.2546 9.22086 31.6972 7.86498 29.7647 7.40269C26.3544 6.58703 23.7526 8.05822 21.549 10.7369L21.5934 19.4722C22.7032 16.8555 24.7385 15.0127 27.0692 14.2942C29.8998 13.422 32.6891 14.086 34.8827 15.8999C35.1266 16.1017 35.2758 16.3654 35.5984 16.391V16.3921ZM20.9452 22.3634L20.9502 10.801C19.8534 9.89667 18.3504 9.89667 17.2536 10.801L17.2587 22.389C18.4845 21.805 19.7042 21.8338 20.9452 22.3644V22.3634ZM16.6448 22.7616C16.5339 19.0281 14.1518 15.8498 10.8292 14.8675C6.06816 13.4604 1.29195 16.9206 0.737511 22.0932C0.212309 27.0043 3.72441 31.3069 8.33731 31.5119C12.918 31.7158 16.793 27.7623 16.6438 22.7616H16.6448ZM21.5551 23.1716C21.6236 26.9552 24.048 30.1421 27.3474 31.1318C30.7909 32.1652 34.4321 30.6642 36.3222 27.4453C38.1478 24.3353 37.8665 20.3359 35.6317 17.542C33.3968 14.748 29.8303 13.7722 26.5601 15.1569C23.5843 16.4177 21.4905 19.5715 21.5561 23.1716H21.5551Z" fill="#EDE7E2" stroke="#EDE7E2" stroke-width="0.2"/>
<path d="M8.38493 16.7336C11.6934 16.5585 14.4061 19.265 14.5936 22.6301C14.7882 26.1234 12.263 29.0797 9.01497 29.2761C5.74179 29.4747 2.9555 26.8366 2.75389 23.4042C2.55026 19.9376 5.02808 16.9119 8.38493 16.7336ZM8.23171 17.3881C5.23272 17.6529 3.08957 20.4607 3.37082 23.5536C3.64703 26.5996 6.21659 28.8854 9.11578 28.627C12.022 28.3676 14.2216 25.6505 13.9797 22.549C13.7418 19.502 11.2277 17.1233 8.23171 17.3881Z" fill="#EDE7E2" stroke="#EDE7E2" stroke-width="0.2"/>
<path d="M29.364 16.7283C32.6785 16.6269 35.3469 19.3984 35.4568 22.7817C35.5697 26.2814 32.983 29.1832 29.7017 29.2846C26.4547 29.385 23.7259 26.6871 23.6029 23.2504C23.4799 19.7998 26.0092 16.8318 29.365 16.7283H29.364ZM29.1362 17.3827C26.1342 17.6208 23.983 20.3945 24.2209 23.4725C24.4578 26.5366 26.9991 28.8405 29.8882 28.6323C32.8187 28.4209 35.0495 25.7134 34.8418 22.612C34.6372 19.5543 32.1271 17.1457 29.1362 17.3827Z" fill="#EDE7E2" stroke="#EDE7E2" stroke-width="0.2"/>
</svg>
